<svg width="32" height="32" version="1.1" viewBox="0 0 512 512" xmlns="http://www.w3.org/2000/svg">
 <!--! Font Awesome Pro 6.2.1 by @fontawesome - https://fontawesome.com License - https://fontawesome.com/license (Commercial License) Copyright 2022 Fonticons, Inc. -->
 <path d="m128.71 0c-53 0-96 43-96 96v320c0 53 43 96 96 96h288 32c17.7 0 32-14.3 32-32s-14.3-32-32-32v-64c17.7 0 32-14.3 32-32v-320c0-17.7-14.3-32-32-32h-32-288zm169.71 65.906c1.8788 0.010714 3.8024 0.16159 5.793 0.54883l1.6133 0.3125-0.42774 1.5781c-11.066 41.089-29.835 77.847-54.096 111.98 0.03011 0.01678 0.0149 0.04433 0.05469 0.0664 0.27093 0.15033 0.79463 0.3019 1.4394 0.51953 6.626 2.2334 13.313 4.3507 19.967 6.6387 9.0797 3.1204 18.066 6.4396 27.113 9.4902v-0.00195c15.237 5.1352 30.165 11.134 45.865 13.029 20.684 2.4959 41.284 4.6999 61.414-2.0391 5.3274-1.7924 9.8077-4.8712 14.049-8.4648 5.0816-4.2986 4.3585-11.919-1.5293-16.539-4.681-3.6733-10.432-5.2041-16.4-6.4238-32.401-6.6165-62.548 0.1189-91.33 15.457-3.8351 2.0418-7.3105 3.1076-10.857 2.8242-3.5469-0.28342-7.0092-1.9008-10.871-4.7988l-1.2988-0.97461 1.0547-1.2285c3.0725-3.5892 7.2913-4.9061 10.807-6.3828 25.733-10.813 52.388-18.008 80.83-16.287 13.752 0.82927 27.374 2.9012 39.395 11.436 5.3551 3.8027 8.0699 9.1325 8.0606 14.537-0.00882 5.4046-2.6954 10.81-7.6738 14.922v0.00196c-12.577 10.373-27.429 12.204-41.826 14.883-21.152 3.9372-42.249 3.4134-63.359-0.25781-10.225-1.7783-20.029-4.8008-30.414-7.0274-24.845 32.497-40.672 69.515-53.617 108.2l-0.35156 1.041h-11.363c-3.6367 0-6.4978-1.2008-10.615-0.47265l-2.4062 0.42382 0.66601-2.3418c11.661-40.877 29.383-77.974 53.924-112.26-4.3122-2.3328-9.0315-3.1698-13.742-4.9258-8.9509-3.3284-17.942-6.4909-27.004-9.4102-21.738-7.0128-42.916-15.53-65.646-17.021-15.449-1.012-30.766-2.3942-45.471 2.5879-6.0606 2.0534-11.79 4.3251-16.25 8.7051-5.959 5.8523-4.5228 15.174 2.7578 19.086 11.311 6.0796 23.677 6.8656 36.354 6.5723 15.744-0.37646 31.302-1.5236 46.125-6.8164 6.9464-2.4831 13.751-5.3136 19.928-9.0371 8.6077-5.1889 16.992-4.3807 24.906 0.67774l1.957 1.25-1.9297 1.2969c-14.463 9.7083-30.822 14.23-47.148 18.391-20.828 5.3063-41.798 5.6677-62.797 1.3438v-0.00196h-0.00195c-7.024-1.4632-14.258-3.424-20.291-7.9023-5.1088-3.7865-8.6393-9.0567-8.9863-14.867-0.34704-5.8105 2.6145-11.949 9.7188-17.131 11.106-8.1074 24.121-10.948 37.014-13.037 22.145-3.5853 44.419-3.9977 66.615-0.01562v0.00391c8.4274 1.5144 16.661 3.7709 24.869 5.791 1.8305 0.45005 3.3453 0.79009 5.2227 0.57031 12.537-15.19 22.063-32.609 30.904-50.631 8.7813-17.908 14.964-36.885 21.699-55.904l0.37696-1.0684 1.1367 0.050781c5.2303 0.23789 10.44-0.9755 16.076-0.94336zm-74.152 0.005859h0.00391c4.0626-0.006825 8.1002 0.12201 12.119 0.24219h0.00391 0.00195c0.66899 0.022727 1.0882 0.29659 1.3809 0.47656 0.29262 0.17998 0.51078 0.33294 0.76563 0.46875l0.84179 0.44922-0.03515 0.94922c-0.13007 3.5075-2.2064 5.6627-3.0625 7.5312v0.001953c-5.725 12.537-10.115 25.413-11.652 39.043-0.62984 5.5912 0.88741 10.417 4.9141 14.498 5.2638 1.7336 9.1493 0.75964 12.916-1.4883 3.8533-2.2996 7.4432-6.0092 11.449-9.3203l4.2422-3.5059-1.8184 5.1797c-1.2824 3.6538-4.2098 7.1927-7.7207 10.002-3.5109 2.8092-7.6082 4.8972-11.521 5.252-8.2205 0.74044-15.882-1.4115-21.238-8.7051-7.814-10.574-8.2364-22.613-7.3242-34.498v-0.001953c0.44382-5.6179 1.7616-11.108 3.002-16.461 0.97492-4.2102 1.6505-6.8223 3.7129-8.4473 2.0618-1.6245 4.75-1.666 9.0195-1.666zm56.156 186.39h0.00196c3.2777 0.07868 6.8963 1.3875 10.26 3.2266 4.4838 2.4516 8.5152 5.8918 10.125 9.7676v0.0039c4.7223 11.343 4.5808 23.089 3.2383 34.727v0.00195c-0.59821 5.2158-1.4396 10.426-2.959 15.572-0.69921 2.3646-1.8332 4.2995-3.5352 5.5879-1.702 1.2884-3.89 1.8415-6.375 1.7324-4.662-0.20441-9.3074-0.49244-14.066-0.75l-0.74024-0.03906-0.42773-0.60743c-0.94394-1.3402-0.87046-2.9707-0.43555-4.0488 0.43493-1.0782 1.0344-1.8597 1.2734-2.3945v-0.00586l0.00391-0.00585c6.2646-13.68 11.072-27.63 11.66-42.641 0.07746-2.055-0.04539-4.113-0.36133-6.1465v-0.00391c-0.64965-4.2343-3.011-6.3662-5.9238-7.3301-2.9128-0.96385-6.4166-0.52945-8.7422 0.80274-3.9313 2.253-7.7174 3.8681-9.8594 7.5352l-0.01172 0.02149-0.01562 0.02539c-1.3557 2.1482-3.6576 3.5292-6.1973 3.7266l0.73828-0.28516-1.0547-0.9414-1.3711-0.53711 0.16211-0.61914 0.29883-0.23438c5.0104-7.891 12.154-13.3 21.174-15.783 0.9941-0.27332 2.048-0.38369 3.1406-0.35742zm-23.232 17.596 0.97071 0.81641 0.34765-0.27344 0.05274-0.1875c-0.00468 0.00622-0.01251 0.00745-0.01563 0.01367l-0.07031 0.13477-1.2852-0.50391zm-128.48 114.1h256v64h-256c-17.7 0-32-14.3-32-32s14.3-32 32-32z" fill="{{ logo_color }}"/>
</svg>
