<svg width="251" height="249" xmlns="http://www.w3.org/2000/svg" xmlns:xlink="http://www.w3.org/1999/xlink" xml:space="preserve" overflow="hidden"><defs><clipPath id="clip0"><rect x="514" y="188" width="251" height="249"></rect></clipPath><clipPath id="clip1"><rect x="515" y="188" width="250" height="249"></rect></clipPath><clipPath id="clip2"><rect x="515" y="188" width="250" height="249"></rect></clipPath><clipPath id="clip3"><rect x="515" y="188" width="250" height="249"></rect></clipPath></defs><g clip-path="url(#clip0)" transform="translate(-514 -188)"><g clip-path="url(#clip1)"><g clip-path="url(#clip2)"><g clip-path="url(#clip3)"><path d="M229.816 114.463C222.336 109.131 213.832 107.813 205.078 107.283 187.052 106.188 170.128 110.764 153.716 117.688 151.409 118.661 148.908 119.472 147.155 121.528 151.937 125.131 155.293 125.246 160.028 122.715 178.621 112.767 198.209 108.366 219.221 112.674 223.081 113.466 226.94 114.476 230.141 116.998 234.313 120.285 234.885 125.984 231.149 129.157 228.382 131.511 225.402 133.578 221.823 134.787 208.67 139.208 195.296 137.751 182.032 136.144 171.799 134.904 162.17 131.007 152.441 127.715 146.625 125.746 140.864 123.61 135.059 121.607 130.81 120.14 126.526 118.778 122.268 117.337 121.548 117.093 120.692 116.941 120.469 116.01 136.147 93.9749 148.232 70.2507 155.348 43.7235 150.538 42.784 146.169 44.2098 141.474 43.9954 137.163 56.2178 133.191 68.4668 127.523 80.0724 121.782 91.8218 115.586 103.235 107.338 113.183 105.738 113.468 104.517 113.119 103.253 112.807 97.9761 111.503 92.7193 110.057 87.3763 109.093 73.2748 106.553 59.1159 106.812 45.0145 109.104 36.7888 110.442 28.6251 112.252 21.7147 117.317 12.9829 123.712 15.0542 131.717 21.2505 136.328 24.9245 139.067 29.4098 140.307 33.8708 141.24 47.1919 143.994 60.4688 143.764 73.6749 140.386 84.1245 137.712 94.4856 134.822 103.587 128.688 98.7233 125.567 93.9152 125.087 88.6628 128.266 84.6196 130.713 80.1962 132.557 75.7131 134.166 66.0506 137.63 55.968 138.366 45.8457 138.609 37.6664 138.799 29.5381 138.3 22.0574 134.263 16.8536 131.456 15.8124 124.616 20.0678 120.42 23.103 117.427 26.9406 115.92 30.8534 114.589 40.5248 111.299 50.4924 112.223 60.376 112.873 75.1472 113.846 88.7999 119.373 102.687 123.871 108.512 125.755 114.288 127.795 120.036 129.941 123.221 131.133 126.736 131.511 129.95 133.604 113.923 155.847 102.439 179.943 94.8835 206.534 97.7727 206.021 99.7799 206.824 101.858 206.824L108.434 206.824C116.813 181.681 127.076 157.561 143.318 136.403 150.268 137.858 156.718 139.9 163.39 141.065 176.826 143.411 190.222 143.742 203.647 141.233 212.912 139.502 222.196 138.333 230.007 131.865 236.008 126.889 236.24 119.043 229.816 114.463Z" fill="#0471B1" fill-rule="nonzero" fill-opacity="1" transform="matrix(1.00402 0 0 1 515 188)"></path><path d="M112.431 86.3351C116.852 85.9327 122.467 81.3479 123.926 77.1743 118.91 81.3369 114.642 86.8789 107.139 84.2483 104.234 81.3922 103.118 77.8596 103.558 73.938 104.559 65.0293 107.413 56.6423 111.109 48.5161 111.755 47.0991 112.915 45.9076 112.984 44.0396 112.542 43.8031 112.296 43.5577 112.038 43.5489 109.46 43.4715 106.883 43.3875 104.301 43.3919 98.8714 43.3919 98.332 43.7721 97.0941 49.1395 96.2982 52.588 95.4693 56.0763 95.1929 59.589 94.6138 67.1647 94.8901 74.5968 99.6982 81.1291 102.93 85.5503 107.371 86.7927 112.431 86.3351Z" fill="#0471B1" fill-rule="nonzero" fill-opacity="1" transform="matrix(1.00402 0 0 1 515 188)"></path><path d="M138.536 163.525C132.888 165.086 128.478 168.452 125.376 173.473L125.416 173.442C126.736 173.339 127.929 172.619 128.633 171.499 130.191 168.821 132.862 167.701 135.309 166.293 138.835 164.265 145.237 165.097 146.169 171.196 146.381 172.566 146.462 173.953 146.41 175.338 146.026 185.182 142.891 194.285 138.85 203.145 138.408 204.138 137.367 205.113 138.22 206.329 141.275 206.495 144.248 206.68 147.224 206.811 150.082 206.937 151.776 205.577 152.593 202.803 153.544 199.569 154.075 196.275 154.455 192.948 155.308 185.525 155.381 178.159 152.448 171.087 150.695 166.847 142.692 162.378 138.536 163.525Z" fill="#0471B1" fill-rule="nonzero" fill-opacity="1" transform="matrix(1.00402 0 0 1 515 188)"></path><path d="M125.359 173.532 125.416 173.426 125.379 173.455C125.379 173.455 125.359 173.532 125.359 173.532Z" fill="#0471B1" fill-rule="nonzero" fill-opacity="1" transform="matrix(1.00402 0 0 1 515 188)"></path><path d="M124.501 0C55.7403 0 0 55.7403 0 124.499 0 193.257 55.7403 249 124.501 249 193.262 249 249 193.26 249 124.499 249 55.7381 193.26 0 124.501 0ZM124.501 247.453C56.5914 247.453 1.54742 192.404 1.54742 124.499 1.54742 56.5936 56.5914 1.54742 124.501 1.54742 192.411 1.54742 247.453 56.5914 247.453 124.499 247.453 192.406 192.404 247.453 124.501 247.453Z" fill="#0471B1" fill-rule="nonzero" fill-opacity="1" transform="matrix(1.00402 0 0 1 515 188)"></path></g></g></g></g></svg>