<?xml version="1.0" encoding="UTF-8"?>
<svg width="512" height="512" version="1.1" viewBox="0 0 512 512" xmlns="http://www.w3.org/2000/svg" xmlns:xlink="http://www.w3.org/1999/xlink">
 <defs>
  <clipPath id="clip3">
   <rect x="515" y="188" width="250" height="249"/>
  </clipPath>
  <linearGradient id="linearGradient761" x1="32.71" x2="480.71" y2="512" gradientUnits="userSpaceOnUse">
   <stop stop-color="#0471b1" offset="0"/>
   <stop stop-color="#045898" offset="1"/>
  </linearGradient>
 </defs>
 <!--! Font Awesome Pro 6.2.1 by @fontawesome - https://fontawesome.com License - https://fontawesome.com/license (Commercial License) Copyright 2022 Fonticons, Inc. -->
 <g>
  <path d="m128.71 0c-53 0-96 43-96 96v320c0 53 43 96 96 96h320c17.7 0 32-14.3 32-32s-14.3-32-32-32v-64c17.7 0 32-14.3 32-32v-320c0-17.7-14.3-32-32-32h-32zm0 384h256v64h-256c-17.7 0-32-14.3-32-32s14.3-32 32-32z" fill="url(#linearGradient761)"/>
  <path d="m120.47 446.21c-9.1625-2.7871-17.108-9.8798-20.701-18.479-2.3523-5.6297-2.4337-18.006-0.15431-23.462 2.4615-5.8912 9.1146-13.055 15.097-16.257l5.1386-2.7497 264.16-0.67236v62.792l-130.2-0.10786c-71.61-0.0593-131.62-0.53843-133.35-1.0647z" fill="#fff"/>
 </g>
 <g transform="matrix(1.5541,0,0,1.5541,-738.82,-292.17)" clip-path="url(#clip3)" fill="#afe1ff" stroke="#afe1ff" stroke-width="1.9612">
  <path transform="matrix(1.004 0 0 1 515 188)" d="m229.82 114.46c-7.48-5.332-15.984-6.65-24.738-7.18-18.026-1.095-34.95 3.481-51.362 10.405-2.307 0.973-4.808 1.784-6.561 3.84 4.782 3.603 8.138 3.718 12.873 1.187 18.593-9.948 38.181-14.349 59.193-10.041 3.86 0.792 7.719 1.802 10.92 4.324 4.172 3.287 4.744 8.986 1.008 12.159-2.767 2.354-5.747 4.421-9.326 5.63-13.153 4.421-26.527 2.964-39.791 1.357-10.233-1.24-19.862-5.137-29.591-8.429-5.816-1.969-11.577-4.105-17.382-6.108-4.249-1.467-8.533-2.829-12.791-4.27-0.72-0.244-1.576-0.396-1.799-1.327 15.678-22.035 27.763-45.759 34.879-72.286-4.81-0.9395-9.179 0.4863-13.874 0.2719-4.311 12.222-8.283 24.471-13.951 36.077-5.741 11.749-11.937 23.163-20.185 33.111-1.6 0.285-2.821-0.064-4.085-0.376-5.2769-1.304-10.534-2.75-15.877-3.714-14.102-2.54-28.26-2.281-42.362 0.011-8.2257 1.338-16.389 3.148-23.3 8.213-8.7318 6.395-6.6605 14.4-0.4642 19.011 3.674 2.739 8.1593 3.979 12.62 4.912 13.321 2.754 26.598 2.524 39.804-0.854 10.45-2.674 20.811-5.564 29.912-11.698-4.8637-3.121-9.6718-3.601-14.924-0.422-4.0432 2.447-8.4666 4.291-12.95 5.9-9.6625 3.464-19.745 4.2-29.867 4.443-8.1793 0.19-16.308-0.309-23.788-4.346-5.2038-2.807-6.245-9.647-1.9896-13.843 3.0352-2.993 6.8728-4.5 10.786-5.831 9.6714-3.29 19.639-2.366 29.523-1.716 14.771 0.973 28.424 6.5 42.311 10.998 5.825 1.884 11.601 3.924 17.349 6.07 3.185 1.192 6.7 1.57 9.914 3.663-16.027 22.243-27.511 46.339-35.066 72.93 2.8892-0.513 4.8964 0.29 6.9745 0.29h6.576c8.379-25.143 18.642-49.263 34.884-70.421 6.95 1.455 13.4 3.497 20.072 4.662 13.436 2.346 26.832 2.677 40.257 0.168 9.265-1.731 18.549-2.9 26.36-9.368 6.001-4.976 6.233-12.822-0.191-17.402z"/>
  <path transform="matrix(1.004 0 0 1 515 188)" d="m112.43 86.335c4.421-0.4024 10.036-4.9872 11.495-9.1608-5.016 4.1626-9.284 9.7046-16.787 7.074-2.905-2.8561-4.021-6.3887-3.581-10.31 1.001-8.9087 3.855-17.296 7.551-25.422 0.646-1.417 1.806-2.6085 1.875-4.4765-0.442-0.2365-0.688-0.4819-0.946-0.4907-2.578-0.0774-5.155-0.1614-7.737-0.157-5.4296 0-5.969 0.3802-7.2069 5.7476-0.7959 3.4485-1.6248 6.9368-1.9012 10.45-0.5791 7.5757-0.3028 15.008 4.5053 21.54 3.2318 4.4212 7.6728 5.6636 12.733 5.206z"/>
  <path transform="matrix(1.004 0 0 1 515 188)" d="m138.54 163.52c-5.648 1.561-10.058 4.927-13.16 9.948l0.04-0.031c1.32-0.103 2.513-0.823 3.217-1.943 1.558-2.678 4.229-3.798 6.676-5.206 3.526-2.028 9.928-1.196 10.86 4.903 0.212 1.37 0.293 2.757 0.241 4.142-0.384 9.844-3.519 18.947-7.56 27.807-0.442 0.993-1.483 1.968-0.63 3.184 3.055 0.166 6.028 0.351 9.004 0.482 2.858 0.126 4.552-1.234 5.369-4.008 0.951-3.234 1.482-6.528 1.862-9.855 0.853-7.423 0.926-14.789-2.007-21.861-1.753-4.24-9.756-8.709-13.912-7.562z"/>
  <path transform="matrix(1.004 0 0 1 515 188)" d="m125.36 173.53 0.057-0.106-0.037 0.029-0.02 0.077z"/>
 </g>
</svg>
